<svg xmlns="http://www.w3.org/2000/svg" xmlns:svg="http://www.w3.org/2000/svg" width="304.21796mm" height="138.3752mm" viewBox="0 0 304.21796 138.37519" version="1.1" id="svg5" xml:space="preserve"><defs id="defs2" fill="#212529"/><g id="layer1" transform="translate(-3021.5669,-1474.9455)"><path id="path109117" style="color:#212529;fill:#212529;fill-rule:evenodd;stroke-width:0.395199;paint-order:stroke fill markers" d="m 3213.6455,1474.9455 -0.7745,3.3099 -12.3409,52.7503 h 3.4906 l 12.1598,-51.9763 105.5207,24.6867 -24.6867,105.5207 -105.5205,-24.6867 6.8705,-29.3675 h -3.4906 l -7.4636,31.903 112.1392,26.2351 26.2354,-112.1403 z"/><g id="g13373" style="fill:#212529" transform="matrix(1.0678746,0,0,1.0678746,2702.4707,1277.077)"><path d="m 345.90214,235.55373 q 0,9.53614 -5.47197,14.53492 -5.47198,4.92187 -15.69594,4.92187 h -8.92797 v 17.22657 H 298.81433 V 216.866 h 25.27191 q 10.22395,0 15.98393,4.84497 5.83197,4.76806 5.83197,13.84276 z m -16.19993,0.0769 q 0,-2.92237 -2.30399,-4.38355 -2.23199,-1.46118 -6.47997,-1.46118 h -5.11199 v 12.30469 h 7.27197 q 3.16799,0 4.89598,-1.61499 1.728,-1.61499 1.728,-4.84497 z" style="font-size:74.4116px;line-height:1.25;font-family:HelveticaLTW05-Black;-inkscape-font-specification:HelveticaLTW05-Black;letter-spacing:0px;word-spacing:0px;fill:#212529;stroke-width:2.53675" id="path13344"/><path d="m 366.97199,273.39065 q -6.47998,0 -11.37596,-2.53784 -4.82397,-2.53785 -7.48796,-7.22901 -2.592,-4.69116 -2.592,-11.07421 0,-6.76758 2.592,-11.61255 2.66399,-4.92188 7.48796,-7.53662 4.82398,-2.61476 11.30396,-2.61476 6.47997,0 11.37595,2.61476 4.89598,2.61474 7.48796,7.3828 2.66399,4.69117 2.66399,10.92042 0,10.15136 -5.75996,15.91918 -5.68798,5.76783 -15.69594,5.76783 z m 6.47997,-21.68701 q 0,-4.46045 -1.728,-7.30591 -1.65598,-2.84546 -4.39197,-2.84546 -3.31199,0 -5.11199,2.76856 -1.72799,2.76855 -1.72799,7.38281 0,5.22949 1.656,8.07495 1.72799,2.84546 4.82398,2.84546 6.47997,0 6.47997,-10.92041 z" style="font-size:74.4116px;line-height:1.25;font-family:HelveticaLTW05-Black;-inkscape-font-specification:HelveticaLTW05-Black;letter-spacing:0px;word-spacing:0px;fill:#212529;stroke-width:2.53675" id="path13346"/><path d="m 408.07932,239.55276 q -4.24799,0 -4.24799,2.84546 0,1.38427 1.79999,2.23022 1.87199,0.84595 6.62398,1.8457 8.27996,1.76881 11.80795,4.84497 3.59998,2.99927 3.59998,7.99805 0,6.69068 -5.32798,10.38208 -5.25597,3.69141 -14.97593,3.69141 -8.63997,0 -13.53595,-3.46069 -4.89598,-3.53761 -5.39998,-10.22827 h 14.25595 q 0,2.23022 1.43999,3.61449 1.51199,1.30738 3.81598,1.30738 2.23199,0 3.45599,-0.92285 1.29599,-0.92286 1.29599,-2.69166 0,-2.69164 -7.34396,-4.07592 -6.33597,-1.15357 -9.79196,-2.99926 -3.45599,-1.84571 -4.75199,-4.22974 -1.22399,-2.38404 -1.22399,-5.61402 0,-6.30615 4.82398,-9.76684 4.89598,-3.53761 13.03194,-3.53761 17.71194,0 18.71993,12.68922 H 412.5433 q -0.14401,-1.7688 -1.368,-2.84546 -1.15199,-1.07666 -3.09598,-1.07666 z" style="font-size:74.4116px;line-height:1.25;font-family:HelveticaLTW05-Black;-inkscape-font-specification:HelveticaLTW05-Black;letter-spacing:0px;word-spacing:0px;fill:#212529;stroke-width:2.53675" id="path13348"/><path d="m 454.55992,231.93924 v 9.22851 h -7.19997 v 15.07324 q 0,2.76855 1.008,3.69141 1.00799,0.84594 3.23998,0.84594 h 2.80799 v 11.45875 q -1.584,0.1538 -4.10398,0.2307 -2.448,0.0769 -4.67999,0.0769 -5.61597,0 -7.99196,-0.92286 -2.01599,-0.69213 -3.16798,-2.07641 -1.08001,-1.38428 -1.584,-4.15283 -0.504,-2.84546 -0.504,-6.84448 v -17.38036 h -5.32798 v -9.22851 h 5.54399 v -12.5354 h 14.75993 v 12.5354 z" style="font-size:74.4116px;line-height:1.25;font-family:HelveticaLTW05-Black;-inkscape-font-specification:HelveticaLTW05-Black;letter-spacing:0px;word-spacing:0px;fill:#212529;stroke-width:2.53675" id="path13350"/><path d="M 456.19108,256.10718 V 242.1106 h 19.29593 v 13.99658 z" style="font-size:74.4116px;line-height:1.25;font-family:HelveticaLTW05-Black;-inkscape-font-specification:HelveticaLTW05-Black;letter-spacing:0px;word-spacing:0px;fill:#212529;stroke-width:2.53675" id="path13352"/><path d="m 480.67546,226.78665 v -11.38184 h 14.97593 v 11.38184 z m 0,45.45044 v -40.29785 h 14.97593 v 40.29785 z" style="font-size:74.4116px;line-height:1.25;font-family:HelveticaLTW05-Black;-inkscape-font-specification:HelveticaLTW05-Black;letter-spacing:0px;word-spacing:0px;fill:#212529;stroke-width:2.53675" id="path13354"/><path d="m 525.14765,231.93924 v 9.22851 h -7.19997 v 15.07324 q 0,2.76855 1.00799,3.69141 1.008,0.84594 3.23999,0.84594 h 2.80799 v 11.45875 q -1.58399,0.1538 -4.10399,0.2307 -2.44798,0.0769 -4.67997,0.0769 -5.61599,0 -7.99197,-0.92286 -2.01599,-0.69213 -3.16799,-2.07641 -1.07999,-1.38428 -1.58399,-4.15283 -0.504,-2.84546 -0.504,-6.84448 v -17.38036 h -5.32797 v -9.22851 h 5.54397 v -12.5354 h 14.75994 v 12.5354 z" style="font-size:74.4116px;line-height:1.25;font-family:HelveticaLTW05-Black;-inkscape-font-specification:HelveticaLTW05-Black;letter-spacing:0px;word-spacing:0px;fill:#212529;stroke-width:2.53675" id="path13356"/></g></g></svg>