<svg xmlns="http://www.w3.org/2000/svg" xmlns:xlink="http://www.w3.org/1999/xlink" xmlns:serif="http://www.serif.com/" width="150" height="22" viewBox="0 0 119 18" version="1.1" xml:space="preserve" style="fill-rule:evenodd;clip-rule:evenodd;stroke-linejoin:round;stroke-miterlimit:1.41421;">    <g transform="matrix(1,0,0,1,-438,-435)">        <path d="M524.256,449.304C525.475,449.304 526.464,448.423 526.464,447.341C526.464,446.261 525.475,445.38 524.256,445.38C523.037,445.38 522.046,446.261 522.046,447.341C522.046,448.423 523.037,449.304 524.256,449.304ZM526.291,442.164L526.291,443.362C525.47,442.8 523.807,441.955 521.177,441.955C518.933,441.955 514.906,442.807 514.906,446.964C514.906,451.31 518.438,452.146 521.177,452.146C523.5,452.146 525.442,451.606 526.291,450.761L526.291,451.728L533.378,451.728L533.378,442.164L526.291,442.164ZM438.998,448.603L438.998,442.183L445.961,442.183L445.961,448.296C445.961,448.992 446.923,449.863 448.286,449.863C449.513,449.863 450.612,449.136 450.612,448.296L450.612,442.183L457.574,442.183L457.574,448.603C457.574,450.293 454.752,452.035 448.286,452.035C441.818,452.035 438.998,450.293 438.998,448.603ZM503.839,450.655C505.896,450.655 507.564,448.99 507.564,446.933C507.564,444.874 505.896,443.208 503.839,443.208C501.782,443.208 500.112,444.874 500.112,446.933C500.112,448.99 501.782,450.655 503.839,450.655ZM501.826,451.702L494.868,451.702L494.861,436.294L501.826,436.294L501.826,442.162L508.798,442.162C511.426,442.162 513.554,444.266 513.554,446.894C513.554,449.522 511.426,451.702 508.798,451.702L501.826,451.702ZM493.33,445.346L488.71,445.346L488.714,447.706L493.33,447.706L493.33,445.346ZM487.38,436.289L480.413,436.289L480.425,439.807L487.38,439.807L487.38,436.289ZM551.112,436.294L544.147,436.294L544.157,451.702L551.112,451.702L551.112,436.294ZM542.009,436.294L535.042,436.294L535.051,451.702L542.009,451.702L542.009,436.294ZM487.38,442.164L480.413,442.164L480.425,451.702L487.38,451.702L487.38,442.164ZM472.538,441.979C469.646,441.979 468,442.634 466.57,443.885L466.57,442.164L459.607,442.164L459.614,451.702L466.579,451.702L466.579,447.398C466.579,446.17 467.678,445.55 468.905,445.55C470.268,445.55 471.23,446.234 471.23,447.398L471.23,451.702L478.193,451.702L478.193,446.102C478.193,443.239 476.59,441.979 472.538,441.979ZM552.775,450.226C552.775,449.4 553.298,448.877 554.047,448.877C554.789,448.877 555.314,449.472 555.314,450.226C555.314,450.972 554.789,451.493 554.047,451.493C553.298,451.493 552.775,450.972 552.775,450.226ZM554.047,451.788C554.938,451.788 555.686,451.118 555.686,450.226C555.686,449.254 554.938,448.579 554.047,448.579C553.226,448.579 552.48,449.254 552.48,450.226C552.48,451.118 553.226,451.788 554.047,451.788ZM553.745,450.295L554.047,450.295L554.494,451.118L554.868,451.118L554.34,450.295C554.568,450.295 554.789,450.146 554.789,449.772C554.789,449.4 554.568,449.254 554.122,449.254L553.45,449.254L553.45,451.118L553.745,451.118L553.745,450.295ZM553.745,450.072L553.745,449.549L554.122,449.549C554.27,449.549 554.494,449.549 554.494,449.772C554.494,450.072 554.27,450.072 554.047,450.072" style="fill:#212529;" />    </g></svg>