<svg xmlns="http://www.w3.org/2000/svg" height="1225" width="1634" version="1.1" xmlns:xlink="http://www.w3.org/1999/xlink" xmlns:svgjs="http://svgjs.com/svgjs"><rect fill="#ffffffff" width="1634" height="1225"></rect><g><path d="M1137.78 809.14L1186.25 844.16 1185.22 719.87 1298.59 793.74 1253.3 693.35 1359.95 674.11" stroke="#231f20" stroke-width="4" stroke-linecap="round" stroke-linejoin="round" opacity="1" fill="none"></path></g><g><path d="M528.91 592.78L441.48 546.39 398.15 620.31 343.6 512.23 273.92 571.54" stroke="#231f20" stroke-width="4" stroke-linecap="round" stroke-linejoin="round" opacity="1" fill="none"></path></g><g><path d="M413.21 890.77H346.62V957.36H413.21V890.77Z" fill="#303030" opacity="1" stroke-width="4" stroke="none"></path><path d="M380.01 940.94C389.33 940.94 396.89 933.38 396.89 924.06 396.89 914.74 389.33 907.18 380.01 907.18 370.69 907.18 363.13 914.74 363.13 924.06 363.13 933.38 370.69 940.94 380.01 940.94Z" fill="#000000" opacity="1" stroke-width="4" stroke="none"></path><path d="M561.21 698.31V884.29C561.22 889.55 560.18 894.76 558.17 899.62 556.16 904.48 553.21 908.9 549.49 912.62 545.77 916.34 541.35 919.29 536.49 921.3 531.63 923.31 526.42 924.35 521.17 924.34H380.2" stroke="#000000" stroke-width="4" stroke-linecap="round" stroke-linejoin="round" opacity="1" fill="none"></path></g><g><path d="M1120.3 201.94V323.7" stroke="#000000" stroke-width="4" stroke-linecap="round" stroke-linejoin="round" opacity="1" fill="none"></path><path d="M1142.06 419.73C1148.33 407.76 1143.72 392.99 1131.75 386.72 1119.79 380.45 1105.02 385.07 1098.75 397.03 1092.48 408.99 1097.09 423.77 1109.06 430.04 1121.02 436.31 1135.8 431.69 1142.06 419.73Z" fill="#e6e6e6" opacity="1" stroke-width="4" stroke="none"></path><path d="M1177.9 378.48L1162.31 369.96C1151.49 364.08 1143.82 353.86 1141.18 341.84L1138.79 331.02C1136.58 320.88 1126.52 314.41 1116.38 316.71 1109.23 318.33 1103.6 323.87 1102.07 331.02L1099.68 341.84C1097.04 353.86 1089.29 364.08 1078.55 369.96L1062.96 378.48C1051.55 384.7 1043.79 395.95 1042.17 408.81H1198.86C1197.07 395.95 1189.31 384.7 1177.9 378.48Z" fill="#303030" opacity="1" stroke-width="4" stroke="none"></path><path d="M1054.53 384.44H1185.88" stroke="#000000" stroke-width="4" stroke-linecap="round" stroke-linejoin="round" opacity="1" fill="none"></path><path d="M1116.3 316.62C1109.14 318.24 1103.52 323.78 1101.98 330.94L1099.6 341.76C1096.96 353.77 1089.2 364 1078.47 369.87L1062.88 378.39C1051.46 384.61 1043.71 395.86 1042.09 408.73H1087.16C1087.16 379.16 1120.9 377.63 1120.9 350.88 1120.9 332.05 1120.47 316.11 1120.47 316.11 1119.02 316.2 1117.66 316.37 1116.3 316.62Z" fill="#000000" opacity="0.3" stroke-width="4" stroke="none"></path></g><g><path d="M729.92 246.64C800.98 235.81 899.6 239.45 960.48 320.79 1021.37 402.13 968.98 452.46 881.67 385.41 794.35 318.36 724.59 205.37 748.41 186.5 772.22 167.64 886.05 248.04 876.72 327.7 867.38 407.36 737.01 424.07 724.41 325.09 716.56 263.27 807.61 215.08 934.8 249.16 1061.99 283.25 956.84 434.72 862.24 402.97 767.64 371.22 751.86 226.1 826.29 189.96 893.06 157.37 959.74 259.06 913.88 335.92" stroke="#231f20" stroke-width="4" stroke-linecap="round" stroke-linejoin="round" opacity="1" fill="none"></path></g><g><path d="M507.59 287.95H592.96C598.79 287.95 604.38 290.26 608.51 294.38 612.63 298.49 614.96 304.07 614.99 309.9V355.76C614.98 361.59 612.67 367.18 608.56 371.31 604.45 375.44 598.87 377.77 593.04 377.79H507.59C501.76 377.79 496.17 375.48 492.05 371.36 487.92 367.25 485.59 361.67 485.57 355.84V309.97C485.56 307.08 486.13 304.22 487.24 301.54 488.34 298.87 489.96 296.44 492.01 294.39 494.05 292.35 496.48 290.73 499.16 289.62 501.83 288.51 504.7 287.95 507.59 287.95Z" fill="#e6e6e6" opacity="1" stroke-width="4" stroke="none"></path><path d="M608.17 371.28L550.28 325.04 492.38 371.28" stroke="#000000" stroke-width="4" stroke-linecap="round" stroke-linejoin="round" opacity="1" fill="none"></path><path d="M550.2 359.24L608.1 294.01H492.38L550.2 359.24Z" fill="#000000" opacity="0.3" stroke-width="4" stroke="none"></path><path d="M550.2 340.25L608.1 294.01C603.98 290.12 598.54 287.96 592.89 287.95H507.59C501.94 287.97 496.5 290.13 492.38 294.01L550.2 340.25Z" fill="#e6e6e6" opacity="1" stroke-width="4" stroke="none"></path><path d="M492.38 294.01L550.2 340.25 608.1 294.01" stroke="#000000" stroke-width="4" stroke-linecap="round" stroke-linejoin="round" opacity="1" fill="none"></path><path d="M587.29 298.92C587.37 290.41 589.23 282.01 592.75 274.25 596.27 266.5 601.37 259.56 607.72 253.89 608.48 263.73 603.94 271.3 608.48 278.11 610.75 261.46 619.07 261.46 624.37 242.54 639.51 263.73 625.88 278.11 634.21 294.76 634.21 294.76 639.51 287.95 637.99 271.3 645.56 276.6 651.62 287.27 651.62 298.92 651.62 307.46 648.23 315.64 642.2 321.67 636.16 327.7 627.98 331.09 619.45 331.09 610.92 331.09 602.74 327.7 596.71 321.67 590.67 315.64 587.29 307.46 587.29 298.92Z" fill="#303030" opacity="1" stroke-width="4" stroke="none"></path></g><g><path d="M932.78 1041.07V1031.84C932.78 1020.48 923.54 1011.25 912.19 1011.25H794.64C783.29 1011.25 774.05 1020.48 774.05 1031.84V1041.07" stroke="#231f20" stroke-width="4" stroke-linecap="round" stroke-linejoin="round" opacity="1" fill="none"></path><path d="M937.11 815.1H769.73C762.61 815.1 756.74 820.97 756.74 828.09 756.74 835.21 762.51 841.08 769.73 841.08H824.27V861.28H840.43V989.12H824.08V1011.25H882.28V989.12H866.4V861.28H882.47V841.08H937.11C944.23 841.08 950.09 835.21 950.09 828.09 950.09 820.97 944.32 815.1 937.11 815.1Z" fill="#231f20" opacity="1" stroke-width="4" stroke="none"></path><path d="M840.43 861.28H866.4" stroke="#6b5f62" stroke-width="4" stroke-linecap="round" stroke-linejoin="round" opacity="1" fill="none"></path><path d="M840.43 989.12H866.4" stroke="#6b5f62" stroke-width="4" stroke-linecap="round" stroke-linejoin="round" opacity="1" fill="none"></path><path d="M853.42 1046.84V1011.63" stroke="#231f20" stroke-width="4" stroke-linecap="round" stroke-linejoin="round" opacity="1" fill="none"></path><path d="M932.49 1063.2C941.52 1063.2 948.84 1055.88 948.84 1046.84 948.84 1037.81 941.52 1030.49 932.49 1030.49 923.46 1030.49 916.14 1037.81 916.14 1046.84 916.14 1055.88 923.46 1063.2 932.49 1063.2Z" fill="#ffc930" opacity="1" stroke-width="4" stroke="none"></path><path d="M932.49 1051.65C935.15 1051.65 937.3 1049.5 937.3 1046.84 937.3 1044.19 935.15 1042.03 932.49 1042.03 929.84 1042.03 927.68 1044.19 927.68 1046.84 927.68 1049.5 929.84 1051.65 932.49 1051.65Z" fill="#231f20" opacity="1" stroke-width="4" stroke="none"></path><path d="M853.22 1063.2C862.26 1063.2 869.58 1055.88 869.58 1046.84 869.58 1037.81 862.26 1030.49 853.22 1030.49 844.19 1030.49 836.87 1037.81 836.87 1046.84 836.87 1055.88 844.19 1063.2 853.22 1063.2Z" fill="#ffc930" opacity="1" stroke-width="4" stroke="none"></path><path d="M853.51 1051.65C856.17 1051.65 858.32 1049.5 858.32 1046.84 858.32 1044.19 856.17 1042.03 853.51 1042.03 850.86 1042.03 848.7 1044.19 848.7 1046.84 848.7 1049.5 850.86 1051.65 853.51 1051.65Z" fill="#231f20" opacity="1" stroke-width="4" stroke="none"></path><path d="M773.67 1063.2C782.7 1063.2 790.02 1055.88 790.02 1046.84 790.02 1037.81 782.7 1030.49 773.67 1030.49 764.64 1030.49 757.32 1037.81 757.32 1046.84 757.32 1055.88 764.64 1063.2 773.67 1063.2Z" fill="#ffc930" opacity="1" stroke-width="4" stroke="none"></path><path d="M773.67 1051.65C776.32 1051.65 778.48 1049.5 778.48 1046.84 778.48 1044.19 776.32 1042.03 773.67 1042.03 771.01 1042.03 768.86 1044.19 768.86 1046.84 768.86 1049.5 771.01 1051.65 773.67 1051.65Z" fill="#231f20" opacity="1" stroke-width="4" stroke="none"></path></g><g><path d="M682.14 375.29V375.19C689.44 367.32 704.9 352.06 705.19 351.39 706.24 350.43 711.91 297.34 723.04 298.78 727.46 298.78 729.47 302.42 730.15 304.15 730.34 304.54 730.82 304.63 731.11 304.44 733.31 303 740.42 298.97 750.88 298.97 763.94 299.16 770.47 301.94 771.14 306.74 771.14 306.74 771.14 306.84 771.23 306.84 772.67 307.03 779.87 309.72 778.05 314.42 778.05 314.52 778.05 314.52 778.15 314.52 779.3 314.9 786.59 317.98 784 322.1V322.2C784.77 322.58 790.63 326.23 788.71 330.07 784.39 337.66 757.41 336.03 753.86 344.67 752.42 347.83 752.61 351.77 752.8 356.67 754.91 379.61 745.12 393.24 730.43 415.13 730.43 415.13 730.34 415.23 730.34 415.13 728.71 414.55 697.31 403.03 696.16 402.65 696.16 402.65 696.16 402.65 696.07 402.65L682.14 375.29Z" fill="#f2cba1" opacity="1" stroke-width="4" stroke="none"></path><path d="M647.58 1006.69L643.84 979.81C644.9 968.67 642.88 961.86 638.66 946.11 638.66 946.02 637.98 940.35 637.89 939.49 637.89 939.39 637.89 939.39 637.98 939.39L732.83 939.2C732.83 939.2 732.93 939.2 732.93 939.3L736.39 946.21C738.5 966.66 739.36 987.3 738.88 1007.55L733.79 1017.63 733.7 1017.73 647.58 1006.69C647.58 1006.79 647.58 1006.79 647.58 1006.69Z" fill="#f2cba1" opacity="1" stroke-width="4" stroke="none"></path><path d="M643.84 979.91C643.84 979.81 643.84 979.81 643.84 979.91L680.03 979.81C686.75 979.81 691.75 985.95 690.59 992.39L687.81 1007.36C687.81 1007.46 687.81 1007.46 687.9 1007.46H738.79C738.88 1007.46 738.88 1007.46 738.88 1007.55 738.59 1019.07 737.63 1030.59 736.48 1041.92 736.48 1041.92 736.48 1042.02 736.39 1042.02L617.15 1052.77C617.15 1052.77 617.15 1052.77 617.06 1052.77L597.38 1042.11C597.28 1042.11 597.28 1042.02 597.38 1042.02 610.53 1023.3 640.67 1018.4 643.84 979.91Z" fill="#ffc930" opacity="1" stroke-width="4" stroke="none"></path><path d="M736.48 1042.21C735.71 1049.31 734.75 1056.42 733.6 1063.43 733.6 1063.43 733.6 1063.52 733.51 1063.52H635.1 590.94C590.85 1063.52 590.85 1063.52 590.85 1063.43 590.85 1054.4 593.34 1047.68 597.28 1042.11H597.38L736.48 1042.21Z" fill="#ffffff" opacity="1" stroke-width="4" stroke="none"></path><path d="M618.11 745.47C649.79 707.84 732.45 683.07 774.02 672.61 789.09 668.86 798.02 667.04 798.21 667.04H858.4 858.5C859.36 667.9 881.44 690.37 888.16 728.09 896.23 774.56 860.42 815.94 813.09 815.94H705.47C705.38 815.94 705.38 816.03 705.38 816.03 720.93 856.26 731.59 901.47 736.29 946.02 736.29 946.11 736.29 946.11 736.19 946.11H638.75C638.75 946.11 638.66 946.11 638.66 946.02 623.49 891.78 583.74 786.37 618.11 745.47Z" fill="#303030" opacity="1" stroke-width="4" stroke="none"></path><path d="M707.68 754.88C666.3 757.95 647.2 773.89 659.3 834.46 676.1 918.46 706.91 954.85 705.67 981.54 703.65 1023.59 657.95 1029.92 657.95 1063.52L775.17 1058.24C775.27 1058.24 775.17 1058.34 775.17 1058.24 775.27 1052.39 782.66 749.21 707.68 754.88Z" fill="#000000" opacity="0.3" stroke-width="4" stroke="none"></path><path d="M728.71 1010.82L723.33 979.81C723.43 968.58 721.7 960.23 717.47 946.11 717.47 945.92 717.38 939.68 717.38 938.91 717.38 938.82 717.38 938.82 717.47 938.82L814.15 937.57C814.15 937.57 814.15 937.57 814.24 937.57L827.11 946.02C827.11 946.02 827.11 946.02 827.11 946.11 830.75 965.51 833.44 985.95 834.98 1007.36L833.83 1018.69C833.83 1018.79 833.73 1018.79 833.73 1018.79L728.71 1010.82C728.71 1010.91 728.71 1010.91 728.71 1010.82Z" fill="#f2cba1" opacity="1" stroke-width="4" stroke="none"></path><path d="M686.37 1041.92C697.79 1023.01 723.14 1018.21 723.33 979.91 723.33 979.81 723.33 979.81 723.43 979.81H758.66C765.28 979.81 770.18 985.76 769.12 992.1L766.63 1007.36C766.63 1007.46 766.63 1007.46 766.72 1007.46H834.88C834.98 1007.46 834.98 1007.46 834.98 1007.55 835.75 1018.59 836.23 1030.21 836.32 1041.92 836.32 1041.92 836.32 1042.02 836.23 1042.02 834.59 1042.5 801.67 1050.75 767.11 1050.75 729.09 1050.75 689.06 1042.5 686.37 1041.92 686.27 1041.92 686.37 1042.02 686.37 1041.92Z" fill="#ffc930" opacity="1" stroke-width="4" stroke="none"></path><path d="M685.79 745.47C728.99 694.21 865.03 667.23 865.89 667.04L952.2 670.11C952.2 670.11 952.29 670.11 952.29 670.21 952.58 670.97 955.36 680.29 958.24 693.34 960.26 702.65 962.28 713.79 963.24 725.12 967.84 778.3 928.1 816.03 880.87 816.03H783.14C783.04 816.03 783.04 816.13 783.04 816.13 801.95 853.38 817.6 896.77 827.11 946.02 827.11 946.11 827.11 946.11 827.01 946.11H717.57C717.57 946.11 717.47 946.11 717.47 946.02 700 888.99 650.56 787.33 685.79 745.47Z" fill="#303030" opacity="1" stroke-width="4" stroke="none"></path><path d="M764.23 783.3C759.23 764.96 836.03 815.94 855.04 815.94 830.47 815.94 784.77 815.94 783.04 815.94H782.95C782.47 814.88 774.5 799.14 764.23 783.3Z" fill="#000000" opacity="0.3" stroke-width="4" stroke="none"></path><path d="M836.32 1042.11C836.42 1049.12 836.32 1056.23 836.13 1063.43 836.13 1063.52 836.13 1063.52 836.03 1063.52H776.32 680.9C680.8 1063.52 680.8 1063.52 680.8 1063.43 680.8 1054.31 682.91 1047.59 686.27 1042.11H686.37 836.32C836.32 1042.02 836.32 1042.02 836.32 1042.11Z" fill="#ffffff" opacity="1" stroke-width="4" stroke="none"></path><path d="M1025.45 610.01C1014.69 578.91 948.07 499.71 911.3 479.35V479.26C887.49 467.83 859.36 466.78 858.69 466.78L808.29 467.55 788.8 471C776.51 468.99 736.29 465.15 713.83 463.23 705.57 462.46 699.71 461.98 698.66 461.98 698.56 461.98 698.56 461.88 698.56 461.79 700 459.77 716.71 436.15 730.24 415.32V415.23L682.14 375.29H682.05C661.02 396.6 638.37 419.93 628.77 431.74 619.07 443.64 614.46 460.06 616.38 475.32 618.59 492.99 629.25 509.4 647.2 522.75 655.26 528.7 664 533.79 672.93 538.11 708.83 555.48 746.95 560.28 748.77 560.48 748.77 560.48 748.87 560.48 748.87 560.57L774.02 672.51 774.11 672.61 952.96 672.7C953.06 672.7 953.06 672.61 953.06 672.61L952.1 668.29C960.07 668.86 967.84 669.15 974.95 669.15 998.85 669.15 1015.08 665.69 1020.65 659.36 1026.5 652.83 1034.95 637.57 1025.45 610.01Z" fill="#e6e6e6" opacity="1" stroke-width="4" stroke="none"></path><path d="M746.37 946.21L638.66 946.11" stroke="#000000" stroke-width="4" stroke-linecap="round" stroke-linejoin="round" opacity="1" fill="none"></path><path d="M637.12 1003.04L651.33 1008.8" stroke="#1b1912" stroke-width="4" stroke-linecap="round" stroke-linejoin="round" opacity="1" fill="none"></path><path d="M628.38 1014.66L640 1024.26" stroke="#1b1912" stroke-width="4" stroke-linecap="round" stroke-linejoin="round" opacity="1" fill="none"></path><path d="M773.15 797.7L782.95 815.94" stroke="#000000" stroke-width="4" stroke-linecap="round" stroke-linejoin="round" opacity="1" fill="none"></path><path d="M719.49 1002.75L733.79 1008.8" stroke="#1b1912" stroke-width="4" stroke-linecap="round" stroke-linejoin="round" opacity="1" fill="none"></path><path d="M711.52 1015.81L722.47 1024.26" stroke="#1b1912" stroke-width="4" stroke-linecap="round" stroke-linejoin="round" opacity="1" fill="none"></path><path d="M788.9 462.65L788.99 455.64C788.99 455.55 788.9 455.55 788.9 455.55 787.27 455.93 769.22 459.58 757.51 448.73 743.01 434.04 752.61 405.34 751.55 385.18 751.27 380.19 751.36 375.29 751.84 370.97 755.01 341.11 776.51 336.22 812.23 336.79 853.89 338.23 856.87 360.03 858.12 375 858.5 387.87 858.4 412.73 858.21 432.79 858.02 449.21 858.4 459.39 858.4 460.15V460.25L851.11 466.49C851.11 466.49 851.11 466.49 851.01 466.49L789.09 462.75C788.99 462.75 788.9 462.75 788.9 462.65Z" fill="#f2cba1" opacity="1" stroke-width="4" stroke="none"></path><path d="M789.09 455.55C788.99 455.55 788.99 455.55 789.09 455.55L788.99 462.75V467.35C788.99 467.45 788.99 467.45 789.09 467.45L793.79 467.55H793.89L810.31 447.67C810.4 447.58 810.31 447.48 810.21 447.58 801.09 452.09 789.95 455.26 789.09 455.55Z" fill="#70502e" opacity="0.3" stroke-width="4" stroke="none"></path><path d="M848.04 433.85C842.18 433.85 834.31 432.31 829.51 425.69V425.59C830.85 424.35 852.26 402.94 842.18 390.07 839.49 386.62 835.75 384.89 831.23 384.89 821.63 384.89 811.07 392.67 810.4 393.24H810.31C809.44 392.95 800.03 383.93 803.49 369.63 803.49 369.53 803.39 369.43 803.3 369.53 791.87 377.98 781.03 379.51 778.91 366.75 778.91 366.65 778.82 366.65 778.72 366.65 772.29 371.07 766.24 373.47 760.48 373.47 754.91 373.37 751.84 371.55 751.65 371.07 751.65 371.07 751.65 371.07 751.65 370.97 753.09 341.11 778.24 328.92 811.27 329.59 881.25 329.59 858.6 430.11 858.02 432.7 858.02 432.7 858.02 432.79 857.92 432.79 857.64 432.89 853.32 433.85 848.04 433.85Z" fill="#000000" opacity="1" stroke-width="4" stroke="none"></path><path d="M808.77 470.33L794.47 488.76C794.47 488.86 794.27 488.76 794.27 488.76L788.8 471 788.9 462.84C788.9 462.75 788.9 462.75 788.99 462.75L858.31 460.15C858.4 460.15 858.4 460.15 858.4 460.25L858.69 466.68V466.78L825.28 491.07H825.19L808.96 470.33C808.87 470.33 808.87 470.33 808.77 470.33Z" fill="#bbbbbb" opacity="1" stroke-width="4" stroke="none"></path><path d="M769.03 423C770.18 419.35 773.92 417.15 777.76 418.2" stroke="#70502e" stroke-width="4" stroke-linecap="round" stroke-linejoin="round" opacity="1" fill="none"></path><path d="M770.56 400.44L770.27 403.13C770.08 404.95 770.85 406.68 772.29 407.83" stroke="#70502e" stroke-width="4" stroke-linecap="round" stroke-linejoin="round" opacity="1" fill="none"></path><path d="M785.54 393.05C789.47 393.15 789.47 398.91 785.54 399 781.6 398.91 781.6 393.15 785.54 393.05Z" fill="#000000" opacity="1" stroke-width="4" stroke="none"></path><path d="M759.33 393.05C763.27 393.15 763.27 398.91 759.33 399 755.39 398.91 755.39 393.15 759.33 393.05Z" fill="#000000" opacity="1" stroke-width="4" stroke="none"></path><path d="M808.29 504.32C816.64 504.51 816.64 516.8 808.29 516.99 799.94 516.8 799.94 504.51 808.29 504.32Z" fill="#0c0c0c" opacity="1" stroke-width="4" stroke="none"></path><path d="M808.29 548.57C816.64 548.76 816.64 561.05 808.29 561.24 799.94 561.05 799.94 548.76 808.29 548.57Z" fill="#0c0c0c" opacity="1" stroke-width="4" stroke="none"></path><path d="M808.29 592.92C816.64 593.12 816.64 605.4 808.29 605.6 799.94 605.4 799.94 593.12 808.29 592.92Z" fill="#0c0c0c" opacity="1" stroke-width="4" stroke="none"></path><path d="M748.87 560.38L744.74 535.8" stroke="#0c0c0c" stroke-width="4" stroke-linecap="round" stroke-linejoin="round" opacity="1" fill="none"></path><path d="M698.66 461.88L685.02 480.22" stroke="#0c0c0c" stroke-width="4" stroke-linecap="round" stroke-linejoin="round" opacity="1" fill="none"></path><path d="M788.99 455.55C800.61 453.63 810.4 446.33 810.4 446.33" stroke="#70502e" stroke-width="4" stroke-linecap="round" stroke-linejoin="round" opacity="1" fill="none"></path><path d="M820.67 407.55L829.41 400.73" stroke="#70502e" stroke-width="4" stroke-linecap="round" stroke-linejoin="round" opacity="1" fill="none"></path><path d="M730.43 304.82C726.88 306.65 716.42 313.27 711.52 320.28" stroke="#70502e" stroke-width="4" stroke-linecap="round" stroke-linejoin="round" opacity="1" fill="none"></path><path d="M770.95 306.84C764.13 305.88 756.45 304.92 749.63 305.88 740.9 307.13 732.16 312.7 732.16 312.7" stroke="#70502e" stroke-width="4" stroke-linecap="round" stroke-linejoin="round" opacity="1" fill="none"></path><path d="M783.91 322.2C776.13 322.2 761.35 322.39 745.89 331.13" stroke="#70502e" stroke-width="4" stroke-linecap="round" stroke-linejoin="round" opacity="1" fill="none"></path><path d="M778.05 314.52C773.25 314.52 755.49 311.74 739.07 321.43" stroke="#70502e" stroke-width="4" stroke-linecap="round" stroke-linejoin="round" opacity="1" fill="none"></path><path d="M684.93 480.12L698.47 461.88C698.47 461.88 698.47 461.88 698.56 461.88 699.23 461.88 705.86 462.46 713.63 463.13 713.73 463.13 713.73 463.23 713.63 463.32L685.12 480.22C684.93 480.32 684.83 480.22 684.93 480.12Z" fill="#0c0c0c" opacity="0.3" stroke-width="4" stroke="none"></path><path d="M748.77 560.48C746.37 560.28 708.74 555.39 673.31 538.3 673.22 538.3 673.22 538.11 673.31 538.11 723.23 536.28 743.2 535.8 744.64 535.71 744.74 535.71 744.74 535.71 744.74 535.8L748.87 560.38 748.77 560.48Z" fill="#0c0c0c" opacity="0.3" stroke-width="4" stroke="none"></path><path d="M963.04 724.83C963.14 724.93 963.24 724.83 963.24 724.73 962.56 716.09 960.55 703.52 958.24 693.25 956.32 684.03 953.73 674.91 953.06 672.7 952.77 671.65 952.2 668.77 952.1 668.29 952.1 668.29 952.1 668.19 952 668.19 935.3 666.94 917.64 664.83 902.18 661.85 892.1 659.93 882.88 657.92 876.07 656.29 875.97 656.29 876.07 656.38 876.07 656.48L873.19 672.51C873.19 672.61 873.19 672.8 873.28 672.8H891.91C928 688.45 960.36 721.95 963.04 724.83Z" fill="#0c0c0c" opacity="0.3" stroke-width="4" stroke="none"></path><path d="M908.52 599.16C910.92 599.16 912.45 599.26 913.03 599.26 913.12 599.26 913.12 599.16 913.12 599.07 906.69 590.81 898.44 580.54 891.72 568.73 891.72 568.64 891.52 568.64 891.52 568.73L886.05 600.03C886.05 600.12 886.05 600.22 886.15 600.22 888.16 600.12 890.18 600.03 892 599.93 899.11 599.45 904.87 599.16 908.52 599.16Z" fill="#0c0c0c" opacity="0.3" stroke-width="4" stroke="none"></path><path d="M885.96 600.22C869.16 601.47 848.04 604.35 832.1 611.45 809.73 620.96 765.76 654.94 782.75 655.81 785.83 655.81 794.47 651.77 798.69 649.66 799.17 649.47 799.65 650.05 799.27 650.43 793.79 656.48 778.82 674.24 792.64 674.91 795.14 674.91 797.54 674.33 798.02 674.24 798.11 674.24 798.11 674.24 798.11 674.33 800.61 684.8 813.95 678.94 816.83 675.87 816.93 675.77 817.03 675.87 817.03 675.97 817.03 679.23 821.15 681.53 825.47 681.34 834.59 680.67 862.82 654.65 864.16 653.21H864.26C864.74 653.41 869.25 654.65 876.26 656.29 883.08 657.92 892.2 660.03 902.28 661.85 902.37 661.85 902.37 661.85 902.37 661.76 902.47 660.41 903.62 644.57 901.03 629.31 898.63 614.91 892.48 600.99 892.1 600.03 892.1 600.03 892.1 600.03 892 600.03 890.08 599.93 888.07 600.12 885.96 600.22Z" fill="#f2cba1" opacity="1" stroke-width="4" stroke="none"></path><path d="M891.72 568.83C899.11 580.64 904.58 588.51 913.32 599.26" stroke="#0c0c0c" stroke-width="4" stroke-linecap="round" stroke-linejoin="round" opacity="1" fill="none"></path><path d="M819.43 631.23C812.61 636.32 804.26 644.96 798.02 650.81" stroke="#70502e" stroke-width="4" stroke-linecap="round" stroke-linejoin="round" opacity="1" fill="none"></path><path d="M832.96 639.01C832.96 639.01 805.89 665.6 798.11 674.33" stroke="#70502e" stroke-width="4" stroke-linecap="round" stroke-linejoin="round" opacity="1" fill="none"></path><path d="M846.5 647.65L816.93 675.77" stroke="#70502e" stroke-width="4" stroke-linecap="round" stroke-linejoin="round" opacity="1" fill="none"></path><path d="M686.46 1042.02C697.89 1023.01 723.14 1018.21 723.33 979.81 723.33 977.7 723.33 975.39 723.14 972.99 722.66 966.08 720.74 956.96 717.38 946.21 699.91 889.09 650.46 787.33 685.7 745.47 702.31 725.69 732.83 709.57 764.13 697.09" stroke="#000000" stroke-width="4" stroke-linecap="round" stroke-linejoin="round" opacity="1" fill="none"></path><path d="M827.11 946.21H717.47" stroke="#000000" stroke-width="4" stroke-linecap="round" stroke-linejoin="round" opacity="1" fill="none"></path><path d="M892 599.93C912.36 598.01 958.82 601.18 958.82 601.18" stroke="#0c0c0c" stroke-width="4" stroke-linecap="round" stroke-linejoin="round" opacity="1" fill="none"></path><path d="M902.28 661.66C921.48 666.08 952.1 668.29 952.1 668.29" stroke="#0c0c0c" stroke-width="4" stroke-linecap="round" stroke-linejoin="round" opacity="1" fill="none"></path></g><g><path d="M1142.26 689.04H1117.04V1063.51H1142.26V689.04Z" fill="#231f20" opacity="1" stroke-width="4" stroke="none"></path><path d="M527.79 689.04H502.57V1063.51H527.79V689.04Z" fill="#231f20" opacity="1" stroke-width="4" stroke="none"></path><path d="M471.76 675.04H1174.01C1175.67 675.03 1177.31 675.35 1178.85 675.98 1180.38 676.61 1181.77 677.54 1182.94 678.71 1184.11 679.89 1185.04 681.28 1185.67 682.81 1186.3 684.34 1186.62 685.99 1186.62 687.64 1186.62 689.3 1186.3 690.94 1185.67 692.48 1185.04 694.01 1184.11 695.4 1182.94 696.57 1181.77 697.75 1180.38 698.67 1178.85 699.3 1177.31 699.93 1175.67 700.26 1174.01 700.25H471.76C470.1 700.26 468.46 699.93 466.93 699.3 465.39 698.67 464 697.75 462.83 696.57 461.66 695.4 460.73 694.01 460.1 692.48 459.47 690.94 459.14 689.3 459.15 687.64 459.14 685.99 459.47 684.34 460.1 682.81 460.73 681.28 461.66 679.89 462.83 678.71 464 677.54 465.39 676.61 466.93 675.98 468.46 675.35 470.1 675.03 471.76 675.04Z" fill="#231f20" opacity="1" stroke-width="4" stroke="none"></path></g><g><path d="M1164.21 1026.46L1154.66 908.77 1306.81 908.74 1297.22 1026.46H1164.21Z" fill="#8e8e8e" opacity="1" stroke-width="4" stroke="none"></path><path d="M1240.51 1045.11L1300.93 984.69" stroke="#303030" stroke-width="4" stroke-linecap="round" stroke-linejoin="round" opacity="1" fill="none"></path><path d="M1182.23 1045.11L1305.97 921.38" stroke="#303030" stroke-width="4" stroke-linecap="round" stroke-linejoin="round" opacity="1" fill="none"></path><path d="M1162.62 1006.45L1260.77 908.4" stroke="#303030" stroke-width="4" stroke-linecap="round" stroke-linejoin="round" opacity="1" fill="none"></path><path d="M1158.42 952.48L1201.66 909.24" stroke="#303030" stroke-width="4" stroke-linecap="round" stroke-linejoin="round" opacity="1" fill="none"></path><path d="M1221.08 1045.11L1160.57 984.6" stroke="#303030" stroke-width="4" stroke-linecap="round" stroke-linejoin="round" opacity="1" fill="none"></path><path d="M1279.26 1045.11L1155.25 921.1" stroke="#303030" stroke-width="4" stroke-linecap="round" stroke-linejoin="round" opacity="1" fill="none"></path><path d="M1298.78 1006.45L1201 908.58" stroke="#303030" stroke-width="4" stroke-linecap="round" stroke-linejoin="round" opacity="1" fill="none"></path><path d="M1303.35 952.76L1259.18 908.58" stroke="#303030" stroke-width="4" stroke-linecap="round" stroke-linejoin="round" opacity="1" fill="none"></path><path d="M1154.69 908.8L1152.98 888.23 1308.49 888.2 1306.84 908.8H1154.69Z" fill="#303030" opacity="1" stroke-width="4" stroke="none"></path><path d="M1167.29 1063.82L1164.18 1026.44 1297.19 1026.41 1294.23 1063.82H1167.29Z" fill="#303030" opacity="1" stroke-width="4" stroke="none"></path></g><g><path d="M1123.15 536.92L1128.4 541.62C1128.49 541.62 1128.49 541.71 1128.49 541.8L1132.92 555.64C1132.92 555.73 1132.92 555.82 1132.74 555.82L1118.9 555.73C1118.9 555.73 1107.32 550.76 1106.42 550.3V550.21L1116.19 539.18C1116.19 539.18 1116.28 539.09 1116.37 539.09L1123.15 536.92Z" fill="#3f3e3d" opacity="1" stroke-width="4" stroke="none"></path><path d="M1097.91 561.79L1089.95 549.94 1083.62 549.13 1077.28 550.76 1070.95 563.6C1070.95 563.69 1070.95 563.69 1071.04 563.69L1084.43 565.59 1097.82 561.88C1098 561.88 1098 561.88 1097.91 561.79Z" fill="#505050" opacity="1" stroke-width="4" stroke="none"></path><path d="M1077.37 614.18L1118.63 614.9 1137.45 593.01C1137.54 592.92 1137.45 592.83 1137.36 592.83H1059.91C1059.82 592.83 1059.82 592.92 1059.82 593.01L1077.37 614.18Z" fill="#000000" opacity="1" stroke-width="4" stroke="none"></path><path d="M1086.42 646.65L1106.42 550.21C1106.42 550.12 1106.51 550.12 1106.51 550.12L1132.83 555.55C1132.92 555.55 1132.92 555.64 1132.92 555.64L1113.02 652.17 1086.42 646.65Z" fill="#ffc930" opacity="1" stroke-width="4" stroke="none"></path><path d="M1124.69 529.95L1128.58 541.62C1128.58 541.71 1128.58 541.71 1128.49 541.71L1116.46 539.18C1116.37 539.18 1116.37 539.09 1116.37 539L1124.51 529.86C1124.51 529.86 1124.6 529.86 1124.69 529.95Z" fill="#ffc930" opacity="1" stroke-width="4" stroke="none"></path><path d="M1071.04 563.69L1097.91 561.88C1098 561.88 1098 561.88 1098 561.98L1104.43 660.32 1077.37 662.03 1070.95 563.69C1070.95 563.69 1070.95 563.69 1071.04 563.69Z" fill="#000000" opacity="1" stroke-width="4" stroke="none"></path><path d="M1082.8 539.54L1077.37 550.76 1089.95 549.94 1082.98 539.45C1082.98 539.45 1082.89 539.45 1082.8 539.54Z" fill="#000000" opacity="1" stroke-width="4" stroke="none"></path><path d="M1098.73 606.31C1112.75 606.4 1126.41 601.69 1137.45 592.92 1137.54 592.83 1137.63 592.92 1137.63 593.01L1132.29 641.68 1123.6 670.9 1074.21 670.45 1065.07 640.96 1059.82 593.01C1059.82 592.92 1059.91 592.92 1060 592.92 1071.04 601.69 1084.7 606.4 1098.73 606.31Z" fill="#303030" opacity="1" stroke-width="4" stroke="none"></path><path d="M1065.07 640.96C1084.61 624.49 1113.02 624.94 1132.2 641.68V641.77L1128.49 675.88H1068.78L1065.07 640.96Z" fill="#000000" opacity="1" stroke-width="4" stroke="none"></path></g><g><path d="M518.6 638.14C501.96 638.14 484.78 624.6 480.29 607.96L448.91 490.86C446.69 482.56 447.9 474.82 452.32 469.06 456.52 463.58 463.18 460.57 471.07 460.57H659.05C675.7 460.57 692.89 474.15 697.37 490.84L728.74 607.85C730.93 616.17 729.68 623.93 725.24 629.69 721.03 635.14 714.41 638.14 706.59 638.14H518.6Z" fill="#ffc930" opacity="1" stroke-width="4" stroke="none"></path><path d="M620.67 638.14C620.61 637.75 620.57 637.35 620.55 636.95 620.53 636.55 620.51 636.16 620.46 635.78 619.25 623.7 611.39 613.86 602.93 613.86 601.34 613.88 599.77 614.23 598.33 614.9 596.89 615.57 595.61 616.54 594.58 617.75 590.86 621.83 589.03 628.57 589.69 635.78L589.97 638.11 568.94 638.14 564.24 589.56 637.11 589.53 641.9 638.14H620.67Z" fill="#000000" opacity="0.3" stroke-width="4" stroke="none"></path><path d="M540.92 675.5L563.87 589.55 636.83 589.53 613.78 675.5H540.92ZM593.68 613.86C585.26 613.86 575.77 623.7 572.51 635.79 570.55 643.06 571.26 649.84 574.39 653.93 575.27 655.12 576.42 656.08 577.75 656.74 579.07 657.39 580.53 657.72 582.01 657.7 590.48 657.7 600.02 647.86 603.28 635.77 605.18 628.48 604.44 621.69 601.29 617.61 600.41 616.43 599.26 615.47 597.94 614.82 596.62 614.17 595.16 613.84 593.68 613.86Z" fill="#303030" opacity="1" stroke-width="4" stroke="none"></path><path d="M556.61 505.32L561.19 522.51" stroke="#000000" stroke-width="4" stroke-linecap="round" stroke-linejoin="round" opacity="1" fill="none"></path><path d="M578.09 505.32L582.66 522.51" stroke="#000000" stroke-width="4" stroke-linecap="round" stroke-linejoin="round" opacity="1" fill="none"></path><path d="M599.57 505.32L604.14 522.51" stroke="#000000" stroke-width="4" stroke-linecap="round" stroke-linejoin="round" opacity="1" fill="none"></path><path d="M646.91 675.5C646.91 673.77 647.24 672.07 647.9 670.48 648.55 668.89 649.51 667.44 650.73 666.22 651.94 665 653.38 664.03 654.97 663.37 656.56 662.71 658.27 662.37 659.99 662.37H815.94C819.41 662.37 822.74 663.75 825.2 666.21 827.65 668.67 829.04 672 829.04 675.47V675.5H646.91Z" fill="#ffc930" opacity="1" stroke-width="4" stroke="none"></path><path d="M767.38 675.5C767.37 673.77 767.71 672.07 768.36 670.48 769.02 668.89 769.98 667.44 771.19 666.22 772.41 665 773.85 664.03 775.44 663.37 777.03 662.71 778.73 662.37 780.45 662.37H815.94C819.41 662.37 822.74 663.75 825.2 666.21 827.65 668.67 829.04 672 829.04 675.47V675.5H767.38Z" fill="#303030" opacity="1" stroke-width="4" stroke="none"></path></g><g><path d="M1105.32 1014.48L972.88 1014.5 972.86 965.82 1105.32 965.8 1105.32 1014.48Z" fill="#ffc930" opacity="1" stroke-width="4" stroke="none"></path><path d="M1105.32 1014.48L972.88 1014.5 1105.32 965.7 1105.32 1014.48Z" fill="#d69e00" opacity="0.3" stroke-width="4" stroke="none"></path><path d="M1089.56 990.11C1089.56 985.01 1085.43 980.88 1080.34 980.88 1075.25 980.88 1071.12 985.01 1071.12 990.11 1071.12 995.2 1075.25 999.33 1080.34 999.33 1085.43 999.33 1089.56 995.2 1089.56 990.11Z" fill="#000000" opacity="1" stroke-width="4" stroke="none"></path><path d="M1105.32 1062.71L972.88 1062.73 972.86 1014.05 1105.32 1014.03 1105.32 1062.71Z" fill="#303030" opacity="1" stroke-width="4" stroke="none"></path><path d="M1105.32 1062.71L972.88 1062.73 1105.32 1014.02 1105.32 1062.71Z" fill="#000000" opacity="0.3" stroke-width="4" stroke="none"></path><path d="M1089.56 1038.34C1089.56 1033.24 1085.43 1029.11 1080.34 1029.11 1075.25 1029.11 1071.12 1033.24 1071.12 1038.34 1071.12 1043.43 1075.25 1047.56 1080.34 1047.56 1085.43 1047.56 1089.56 1043.43 1089.56 1038.34Z" fill="#000000" opacity="1" stroke-width="4" stroke="none"></path><path d="M973.73 1014.48L1105.3 1014.48" stroke="#000000" stroke-width="4" stroke-linecap="round" stroke-linejoin="round" opacity="1" fill="none"></path></g></svg>